<svg id="Group_144" data-name="Group 144" xmlns="http://www.w3.org/2000/svg" width="78.367" height="15.083" viewBox="0 0 78.367 15.083">
  <path id="Path_187" data-name="Path 187" d="M47.28,433.232l1.14.469-2.244,5.463,2.673,1.1-.4.964-3.812-1.566Z" transform="translate(-44.641 -433.232)" fill="#fe5000"/>
  <path id="Path_188" data-name="Path 188" d="M53.494,437.41l1.143.432L52.8,442.721l-1.143-.431Zm.9-.637a.78.78,0,0,1-.44-.37.641.641,0,0,1-.022-.542.657.657,0,0,1,.377-.4.845.845,0,0,1,1.013.383.658.658,0,0,1,.021.547.646.646,0,0,1-.375.392A.783.783,0,0,1,54.394,436.774Z" transform="translate(-46.687 -433.868)" fill="#fe5000"/>
  <path id="Path_189" data-name="Path 189" d="M57.2,439.657l.96.311-.138.7.04.013a3.7,3.7,0,0,1,.865-.345,1.611,1.611,0,0,1,.909.038,1.559,1.559,0,0,1,.8.515,1.518,1.518,0,0,1,.288.819,4.155,4.155,0,0,1,.944-.4,1.611,1.611,0,0,1,.941.025,1.416,1.416,0,0,1,1,.887,2.574,2.574,0,0,1-.1,1.582L62.7,446.919l-1.173-.38.959-2.962a1.59,1.59,0,0,0,.094-.929.7.7,0,0,0-.489-.437,1.637,1.637,0,0,0-1.241.279l-1.122,3.467-1.162-.376.958-2.961a1.589,1.589,0,0,0,.094-.931.71.71,0,0,0-.5-.44,1.646,1.646,0,0,0-1.241.28L56.752,445l-1.162-.376Z" transform="translate(-47.836 -435.107)" fill="#fe5000"/>
  <path id="Path_190" data-name="Path 190" d="M69.319,442.481l1.183.306-1.307,5.049-1.183-.307Zm.825-.731a.773.773,0,0,1-.476-.321.636.636,0,0,1-.081-.536.657.657,0,0,1,.332-.436.844.844,0,0,1,1.049.272.656.656,0,0,1,.079.542.641.641,0,0,1-.331.43A.78.78,0,0,1,70.144,441.75Z" transform="translate(-51.461 -435.316)" fill="#fe5000"/>
  <path id="Path_191" data-name="Path 191" d="M74,449.368a1.92,1.92,0,0,1-.724-.3,1.314,1.314,0,0,1-.417-.486,1.6,1.6,0,0,1-.156-.642,3.037,3.037,0,0,1,.073-.772l.521-2.43-.727-.156.192-.894.8.118L74,442.448l1,.214-.3,1.392,1.3.278-.2.945L74.5,445l-.521,2.43q-.192.893.525,1.047a1.314,1.314,0,0,0,.283.028,1.36,1.36,0,0,0,.272-.028l.018.928a4.084,4.084,0,0,1-.5.028A2.8,2.8,0,0,1,74,449.368Z" transform="translate(-52.791 -435.922)" fill="#fe5000"/>
  <path id="Path_192" data-name="Path 192" d="M79.763,451.008a2.719,2.719,0,0,1-.974-.325,2.4,2.4,0,0,1-.734-.646,2.429,2.429,0,0,1-.422-.923,3.143,3.143,0,0,1-.034-1.168,3.082,3.082,0,0,1,.36-1.108,2.65,2.65,0,0,1,.651-.778,2.387,2.387,0,0,1,.838-.428,2.2,2.2,0,0,1,.911-.064,2.269,2.269,0,0,1,.9.309,1.83,1.83,0,0,1,.6.6,2.231,2.231,0,0,1,.3.836,3.432,3.432,0,0,1,0,1.008c-.017.12-.038.231-.064.335a2.347,2.347,0,0,1-.072.246l-3.282-.462a1.685,1.685,0,0,0,.338,1.136,1.48,1.48,0,0,0,.984.52,1.912,1.912,0,0,0,.64-.011,2.8,2.8,0,0,0,.613-.2l.3.815a3.732,3.732,0,0,1-.877.285A2.9,2.9,0,0,1,79.763,451.008Zm1.366-3.069a1.546,1.546,0,0,0-.125-.978.941.941,0,0,0-.746-.454,1.158,1.158,0,0,0-.856.212,1.562,1.562,0,0,0-.567.9Z" transform="translate(-54.248 -436.826)" fill="#fe5000"/>
  <path id="Path_193" data-name="Path 193" d="M87.219,450.935a1.905,1.905,0,0,1-1.508-.834,3.131,3.131,0,0,1-.424-2.052,3.328,3.328,0,0,1,.273-1.13,2.683,2.683,0,0,1,.557-.82,2.211,2.211,0,0,1,.746-.486,1.873,1.873,0,0,1,.835-.128,1.67,1.67,0,0,1,.74.211,3.064,3.064,0,0,1,.583.465l.021-.84.144-1.885,1.219.092-.571,7.478-1.006-.076-.042-.568-.042,0a2.747,2.747,0,0,1-.7.436A1.7,1.7,0,0,1,87.219,450.935Zm.373-.983a1.46,1.46,0,0,0,1.136-.5l.185-2.425a1.721,1.721,0,0,0-.509-.38,1.506,1.506,0,0,0-.517-.136,1.059,1.059,0,0,0-.892.38,2.026,2.026,0,0,0-.447,1.244,2.282,2.282,0,0,0,.2,1.31A1,1,0,0,0,87.592,449.952Z" transform="translate(-56.498 -436.21)" fill="#fe5000"/>
  <path id="Path_194" data-name="Path 194" d="M98.92,451.736a1.9,1.9,0,0,1-.768-.147,1.31,1.31,0,0,1-.506-.393,1.605,1.605,0,0,1-.28-.6,3.038,3.038,0,0,1-.081-.771l.028-2.486-.744-.008.011-.914.808-.043.165-1.422,1.02.012-.016,1.423,1.327.016-.011.966-1.328-.015-.029,2.485q-.01.915.722.922a1.247,1.247,0,0,0,.282-.028,1.266,1.266,0,0,0,.261-.082l.2.905a3.956,3.956,0,0,1-.485.127A2.763,2.763,0,0,1,98.92,451.736Z" transform="translate(-59.795 -436.653)" fill="#fe5000"/>
  <path id="Path_195" data-name="Path 195" d="M103.307,445.1a.78.78,0,0,1-.545-.181.637.637,0,0,1-.222-.5.654.654,0,0,1,.2-.508.842.842,0,0,1,1.083-.021.652.652,0,0,1,.222.5.641.641,0,0,1-.2.5A.783.783,0,0,1,103.307,445.1Zm-.6.926L103.93,446l.1,5.216-1.222.023Z" transform="translate(-61.538 -436.288)" fill="#fe5000"/>
  <path id="Path_196" data-name="Path 196" d="M106.61,446.729l1.007-.076.138.7.042,0a3.613,3.613,0,0,1,.67-.647,1.6,1.6,0,0,1,.855-.309,1.559,1.559,0,0,1,.935.174,1.52,1.52,0,0,1,.576.649,4.176,4.176,0,0,1,.723-.726,1.608,1.608,0,0,1,.88-.333,1.412,1.412,0,0,1,1.258.443,2.575,2.575,0,0,1,.507,1.5l.246,3.263-1.229.092-.234-3.1a1.593,1.593,0,0,0-.265-.9.7.7,0,0,0-.618-.22,1.641,1.641,0,0,0-1.042.729l.274,3.634-1.218.091-.234-3.1a1.584,1.584,0,0,0-.264-.9.713.713,0,0,0-.63-.22,1.647,1.647,0,0,0-1.042.729l.273,3.634-1.218.092Z" transform="translate(-62.725 -437.003)" fill="#fe5000"/>
  <path id="Path_197" data-name="Path 197" d="M122.134,450.617a2.712,2.712,0,0,1-1.025-.033,2.4,2.4,0,0,1-.889-.409,2.453,2.453,0,0,1-.669-.764,3.137,3.137,0,0,1-.366-1.11,3.075,3.075,0,0,1,.028-1.164,2.62,2.62,0,0,1,.4-.931,2.369,2.369,0,0,1,.681-.65,2.2,2.2,0,0,1,.854-.322,2.258,2.258,0,0,1,.951.039,1.831,1.831,0,0,1,.743.4,2.255,2.255,0,0,1,.522.717,3.441,3.441,0,0,1,.285.967,3.37,3.37,0,0,1,.035.339,2.255,2.255,0,0,1,0,.258l-3.277.494a1.683,1.683,0,0,0,.649.992,1.48,1.48,0,0,0,1.091.217,1.918,1.918,0,0,0,.61-.194,2.8,2.8,0,0,0,.531-.365l.523.695a3.727,3.727,0,0,1-.759.523A2.88,2.88,0,0,1,122.134,450.617Zm.433-3.331a1.546,1.546,0,0,0-.4-.9.939.939,0,0,0-.845-.221,1.159,1.159,0,0,0-.76.447,1.563,1.563,0,0,0-.286,1.021Z" transform="translate(-66.383 -436.725)" fill="#fe5000"/>
  <path id="Path_198" data-name="Path 198" d="M132.887,448.479a2.465,2.465,0,0,1-.951.048,2.331,2.331,0,0,1-.9-.326,2.532,2.532,0,0,1-.736-.7,3.42,3.42,0,0,1-.554-2.248,2.519,2.519,0,0,1,.325-.966,2.408,2.408,0,0,1,1.5-1.115,2.437,2.437,0,0,1,.957-.044,2.321,2.321,0,0,1,.9.331,2.643,2.643,0,0,1,.736.7,3.334,3.334,0,0,1,.555,2.248,2.663,2.663,0,0,1-.326.967,2.271,2.271,0,0,1-.642.7A2.516,2.516,0,0,1,132.887,448.479Zm-.239-.969a1.044,1.044,0,0,0,.764-.675,2.166,2.166,0,0,0,.018-1.3,2.189,2.189,0,0,0-.623-1.154,1.047,1.047,0,0,0-.99-.243,1.031,1.031,0,0,0-.758.674,2.624,2.624,0,0,0,.6,2.454A1.028,1.028,0,0,0,132.648,447.51Z" transform="translate(-69.471 -436.11)" fill="#fe5000"/>
  <path id="Path_199" data-name="Path 199" d="M137.337,441.608l.957-.321.3.637.04-.013a4.157,4.157,0,0,1,.535-.8,1.813,1.813,0,0,1,.824-.534,1.4,1.4,0,0,1,1.329.12,2.62,2.62,0,0,1,.851,1.334l1.04,3.1-1.158.387-.99-2.951a1.614,1.614,0,0,0-.472-.8.719.719,0,0,0-.678-.053,1.105,1.105,0,0,0-.517.347,3.813,3.813,0,0,0-.405.646l1.159,3.454-1.159.389Z" transform="translate(-71.692 -435.345)" fill="#fe5000"/>
  <path id="Path_200" data-name="Path 200" d="M147.957,442.71a1.033,1.033,0,0,1-1-.008,1.894,1.894,0,0,1-.658-.888l-2.368-5.688,1.128-.47,2.392,5.746a.451.451,0,0,0,.2.257.248.248,0,0,0,.2.014l.074-.031a.374.374,0,0,0,.095-.062l.5.783A1.644,1.644,0,0,1,147.957,442.71Z" transform="translate(-73.616 -433.94)" fill="#fe5000"/>
  <path id="Path_201" data-name="Path 201" d="M152.047,443.436a2.325,2.325,0,0,1-.347.137,1.847,1.847,0,0,1-.312.061l-.211-.958.178-.033a.8.8,0,0,0,.189-.061.9.9,0,0,0,.491-.512,1.59,1.59,0,0,0,.063-.743l-.056-.338-4.073-3.763,1.121-.537,1.92,1.921c.168.171.34.353.515.548s.352.387.53.577l.038-.018c-.047-.245-.093-.494-.142-.751s-.093-.5-.137-.741l-.4-2.649,1.064-.509.645,5.732a5.592,5.592,0,0,1,.028.87,2.622,2.622,0,0,1-.138.732,1.742,1.742,0,0,1-.353.593A1.974,1.974,0,0,1,152.047,443.436Z" transform="translate(-74.795 -433.767)" fill="#fe5000"/>
</svg>
