<svg xmlns="http://www.w3.org/2000/svg" xmlns:xlink="http://www.w3.org/1999/xlink" width="129.992" height="24.123" viewBox="0 0 129.992 24.123">
  <defs>
    <clipPath id="clip-path">
      <rect id="Rectangle_1" data-name="Rectangle 1" width="129.992" height="24.123" fill="#0032a0"/>
    </clipPath>
    <clipPath id="clip-path-2">
      <rect id="Rectangle_2" data-name="Rectangle 2" width="129.992" height="24.122" fill="#0032a0"/>
    </clipPath>
  </defs>
  <g id="Waldo_Logo" data-name="Waldo Logo" transform="translate(-279.922 -271.468)">
    <g id="Group_2" data-name="Group 2" transform="translate(279.922 271.468)">
      <g id="Group_1" data-name="Group 1" transform="translate(0)" clip-path="url(#clip-path)">
        <path id="Path_1" data-name="Path 1" d="M408.168,272.833a.636.636,0,0,1,.636-.637h3.082a.659.659,0,0,1,.636.637v18.8h8.543a.637.637,0,0,1,.637.637v2.747a.636.636,0,0,1-.637.636H408.8a.636.636,0,0,1-.636-.636Z" transform="translate(-349.061 -271.861)" fill="#0032a0"/>
        <path id="Path_2" data-name="Path 2" d="M453.4,272.834a.629.629,0,0,1,.6-.636h7.94a11.725,11.725,0,1,1,0,23.451H454a.629.629,0,0,1-.6-.636Zm8.141,18.727a7.656,7.656,0,0,0,0-15.311h-3.819v15.311Z" transform="translate(-373.444 -271.862)" fill="#0032a0"/>
        <path id="Path_3" data-name="Path 3" d="M521.73,271.47A12.061,12.061,0,1,1,509.7,283.564,12.039,12.039,0,0,1,521.73,271.47m0,19.767a7.706,7.706,0,1,0-7.672-7.672,7.721,7.721,0,0,0,7.672,7.672" transform="translate(-403.799 -271.469)" fill="#0032a0"/>
      </g>
    </g>
    <g id="Group_4" data-name="Group 4" transform="translate(279.922 271.469)">
      <g id="Group_3" data-name="Group 3" transform="translate(0 0)" clip-path="url(#clip-path-2)">
        <path id="Path_4" data-name="Path 4" d="M367.138,294.386l-10.42-22.548a.6.6,0,0,0-.57-.367h-.167a.6.6,0,0,0-.57.367l-10.419,22.548a.591.591,0,0,0,.57.871h2.915a1.009,1.009,0,0,0,.971-.671l1.1-2.423a12.112,12.112,0,0,0,11.032-.005l1.1,2.428a1.008,1.008,0,0,0,.971.671h2.915a.592.592,0,0,0,.57-.871m-14.933-5.942.527-1.194,3.283-7.371h.1l3.283,7.371.525,1.189a8.046,8.046,0,0,1-7.719.005" transform="translate(-314.966 -271.47)" fill="#0032a0"/>
        <path id="Path_5" data-name="Path 5" d="M307.457,271.805h-3.083a.688.688,0,0,0-.6.469l-3.484,13.368h-.134l-5.327-13.8a.54.54,0,0,0-.57-.368h-.5a.539.539,0,0,0-.569.368l-5.327,13.8h-.135l-3.483-13.368a.689.689,0,0,0-.6-.469h-3.082a.583.583,0,0,0-.6.8l6.332,22.514a.642.642,0,0,0,.6.47h.536a.57.57,0,0,0,.57-.37l5.931-15.176h.161l5.93,15.176a.57.57,0,0,0,.57.37h.536a.643.643,0,0,0,.6-.47l6.332-22.514a.584.584,0,0,0-.6-.8" transform="translate(-279.922 -271.469)" fill="#0032a0"/>
      </g>
    </g>
  </g>
</svg>
